<?xml version="1.0" encoding="utf-8"?>
<!-- Generator: Adobe Illustrator 16.0.0, SVG Export Plug-In . SVG Version: 6.00 Build 0)  -->
<!DOCTYPE svg PUBLIC "-//W3C//DTD SVG 1.1//EN" "http://www.w3.org/Graphics/SVG/1.1/DTD/svg11.dtd">
<svg version="1.1" id="Layer_1" xmlns="http://www.w3.org/2000/svg" xmlns:xlink="http://www.w3.org/1999/xlink" x="0px" y="0px"
	 width="82.668px" height="52.329px" viewBox="0 0 82.668 52.329" enable-background="new 0 0 82.668 52.329" xml:space="preserve">
<g>
	<path fill-rule="evenodd" clip-rule="evenodd" fill="#121721" d="M45.83,47.001c-4.46-5.746-5.239-11.723-1.66-18.33
		c-1.942,0-3.601,0-5.563,0c0.3,0.713,0.523,1.345,0.815,1.944c4.266,8.847-2.008,20.996-13.094,21.608
		c-6.282,0.341-11.134-2.88-14.057-8.366c-2.814-5.287-2.12-10.548,1.36-15.446c3.551-4.999,10.975-7.643,16.392-5.414
		c0.895,0.369,1.748,0.572,2.546-0.601c3.618-5.346,7.362-10.604,11.048-15.904c0.147-0.212,0.168-0.514,0.336-1.081
		c-4.742,0-9.323,0-14.03,0c0-1.876,0-3.477,0-5.24c7.937,0,15.794,0,24.03,0C48.8,7.769,43.837,15.099,38.865,22.426
		c0.156,0.246,0.31,0.492,0.466,0.736c5.092-0.24,10.235-0.124,15.275-0.801c7.969-1.071,15.958,4.559,17.4,12.776
		c1.298,7.395-4.681,15.349-12.423,16.82c-2.614,0.501-4.966,0.238-7.568-0.724c0.927-1.378,1.551-2.715,2.549-3.642
		c0.657-0.609,1.852-0.856,2.814-0.886c4.393-0.136,8.007-3.051,8.94-7.354c0.937-4.327-1.324-8.937-5.255-10.646
		c-3.671-1.593-7.197-0.983-10.162,1.442c-2.964,2.43-4.274,5.924-2.812,9.562C49.418,42.997,47.817,44.828,45.83,47.001z
		 M35.365,28.693c-0.197-0.148-0.397-0.296-0.598-0.444c-2.193,0-4.46,0.356-6.567-0.064c-7.207-1.44-12.264,2.581-11.846,9.814
		c0.306,5.261,4.421,8.726,9.576,8.54c5.378-0.194,9.564-4.854,9.084-9.788C34.755,34.06,32.803,31.422,35.365,28.693z"/>
	<path fill-rule="evenodd" clip-rule="evenodd" fill="#121721" d="M10.76,4.216c-1.342,0-2.611,0.073-3.868-0.02
		c-1.425-0.105-1.84,0.481-1.828,1.858c0.062,5.358,0.024,10.717,0.024,16.075c0,7.786,0,15.569,0,23.359c0,0.842,0,1.684,0,2.708
		c2.007,0,3.765,0,5.675,0c0,1.434,0,2.688,0,4.115c-3.529,0-7.118,0-10.833,0c0-17.351,0-34.668,0-52.144c3.615,0,7.145,0,10.83,0
		C10.76,1.458,10.76,2.694,10.76,4.216z"/>
	<path fill-rule="evenodd" clip-rule="evenodd" fill="#121721" d="M77.252,4.207c-1.343,0-2.686-0.069-4.019,0.018
		c-1.643,0.107-1.64-0.923-1.604-2.066c0.035-1.059-0.209-2.207,1.521-2.157c2.712,0.075,5.429-0.045,8.137,0.085
		c0.483,0.022,0.992,0.824,1.363,1.355c0.168,0.24,0.041,0.693,0.041,1.05c0,15.926,0,31.851-0.006,47.776
		c0,0.636-0.053,1.271-0.088,2.061c-3.615,0-7.136,0-10.815,0c0-1.307,0-2.555,0-4.027c1.796,0,3.553,0,5.47,0
		C77.252,33.56,77.252,19.035,77.252,4.207z"/>
</g>
</svg>
